<svg width="72" height="72" viewBox="0 0 72 72" fill="none" xmlns="http://www.w3.org/2000/svg">
<g id="Phosphor/Duotone/Bank">
<path id="Vector" opacity="0.2" d="M65.25 27H6.75L36 9L65.25 27Z" fill="url(#paint0_linear_1431_995)"/>
<path id="Vector_2" d="M6.75 29.2501H13.5V47.2501H9C8.40326 47.2501 7.83097 47.4871 7.40901 47.9091C6.98705 48.331 6.75 48.9033 6.75 49.5001C6.75 50.0968 6.98705 50.6691 7.40901 51.0911C7.83097 51.513 8.40326 51.7501 9 51.7501H63C63.5967 51.7501 64.169 51.513 64.591 51.0911C65.0129 50.6691 65.25 50.0968 65.25 49.5001C65.25 48.9033 65.0129 48.331 64.591 47.9091C64.169 47.4871 63.5967 47.2501 63 47.2501H58.5V29.2501H65.25C65.7396 29.2496 66.2156 29.0894 66.6059 28.7939C66.9962 28.4984 67.2795 28.0837 67.4128 27.6126C67.546 27.1415 67.522 26.6398 67.3444 26.1837C67.1667 25.7275 66.8452 25.3417 66.4284 25.0848L37.1784 7.08475C36.824 6.86683 36.4161 6.75146 36 6.75146C35.5839 6.75146 35.176 6.86683 34.8216 7.08475L5.57156 25.0848C5.15483 25.3417 4.83325 25.7275 4.65562 26.1837C4.47798 26.6398 4.45398 27.1415 4.58725 27.6126C4.72052 28.0837 5.0038 28.4984 5.3941 28.7939C5.78441 29.0894 6.26044 29.2496 6.75 29.2501ZM18 29.2501H27V47.2501H18V29.2501ZM40.5 29.2501V47.2501H31.5V29.2501H40.5ZM54 47.2501H45V29.2501H54V47.2501ZM36 11.641L57.3019 24.7501H14.6981L36 11.641ZM69.75 58.5001C69.75 59.0968 69.5129 59.6691 69.091 60.0911C68.669 60.513 68.0967 60.7501 67.5 60.7501H4.5C3.90326 60.7501 3.33097 60.513 2.90901 60.0911C2.48705 59.6691 2.25 59.0968 2.25 58.5001C2.25 57.9033 2.48705 57.331 2.90901 56.9091C3.33097 56.4871 3.90326 56.2501 4.5 56.2501H67.5C68.0967 56.2501 68.669 56.4871 69.091 56.9091C69.5129 57.331 69.75 57.9033 69.75 58.5001Z" fill="url(#paint1_linear_1431_995)"/>
</g>
<defs>
<linearGradient id="paint0_linear_1431_995" x1="6.75" y1="27" x2="29.2241" y2="2.52662" gradientUnits="userSpaceOnUse">
<stop stop-color="#FF9F0A"/>
<stop offset="1" stop-color="#FF375F"/>
</linearGradient>
<linearGradient id="paint1_linear_1431_995" x1="2.25" y1="60.7501" x2="50.4727" y2="40.5524" gradientUnits="userSpaceOnUse">
<stop stop-color="#FF9F0A"/>
<stop offset="1" stop-color="#FF375F"/>
</linearGradient>
</defs>
</svg>
