<svg width="32" height="32" viewBox="0 0 32 32" fill="none" xmlns="http://www.w3.org/2000/svg">
<circle cx="16" cy="16" r="16" fill="#D9F5EE"/>
<g clip-path="url(#clip0_1000_7329)">
<path d="M25.8447 9.89415C25.1123 10.2154 24.332 10.4283 23.5185 10.5317C24.3554 10.032 24.9942 9.24677 25.2945 8.30031C24.5142 8.76554 23.6526 9.09415 22.7345 9.27754C21.9936 8.48862 20.9376 8 19.7856 8C17.5505 8 15.7511 9.81415 15.7511 12.0382C15.7511 12.3582 15.7782 12.6658 15.8447 12.9588C12.4883 12.7951 9.5185 11.1865 7.52342 8.736C7.17511 9.34031 6.97081 10.032 6.97081 10.7766C6.97081 12.1748 7.69081 13.4142 8.76404 14.1317C8.11542 14.1194 7.47911 13.9311 6.94004 13.6345C6.94004 13.6468 6.94004 13.6628 6.94004 13.6788C6.94004 15.6406 8.33942 17.2702 10.1745 17.6455C9.84588 17.7354 9.48773 17.7785 9.11604 17.7785C8.85757 17.7785 8.59665 17.7637 8.35173 17.7095C8.8748 19.3083 10.3591 20.4837 12.124 20.5218C10.7505 21.5963 9.0065 22.2437 7.1185 22.2437C6.78742 22.2437 6.46988 22.2289 6.15234 22.1883C7.94065 23.3415 10.06 24 12.3456 24C19.7745 24 23.836 17.8462 23.836 12.512C23.836 12.3335 23.8299 12.1612 23.8213 11.9902C24.6225 11.4215 25.2957 10.7114 25.8447 9.89415Z" fill="#252A34"/>
</g>
<defs>
<clipPath id="clip0_1000_7329">
<rect width="19.6923" height="19.6923" fill="white" transform="translate(6.15234 6.15381)"/>
</clipPath>
</defs>
</svg>
